G04 MADE WITH FRITZING*
G04 WWW.FRITZING.ORG*
G04 DOUBLE SIDED*
G04 HOLES PLATED*
G04 CONTOUR ON CENTER OF CONTOUR VECTOR*
%ASAXBY*%
%FSLAX23Y23*%
%MOIN*%
%OFA0B0*%
%SFA1.0B1.0*%
%ADD10R,0.001000X0.001000*%
%LNSILK0*%
G90*
G70*
G54D10*
X241Y4361D02*
X290Y4361D01*
X240Y4360D02*
X291Y4360D01*
X239Y4359D02*
X291Y4359D01*
X239Y4358D02*
X292Y4358D01*
X240Y4357D02*
X291Y4357D01*
X240Y4356D02*
X291Y4356D01*
X242Y4355D02*
X289Y4355D01*
X257Y4354D02*
X266Y4354D01*
X279Y4354D02*
X288Y4354D01*
X257Y4353D02*
X265Y4353D01*
X280Y4353D02*
X289Y4353D01*
X256Y4352D02*
X264Y4352D01*
X281Y4352D02*
X289Y4352D01*
X255Y4351D02*
X263Y4351D01*
X282Y4351D02*
X290Y4351D01*
X255Y4350D02*
X262Y4350D01*
X283Y4350D02*
X291Y4350D01*
X254Y4349D02*
X261Y4349D01*
X284Y4349D02*
X291Y4349D01*
X254Y4348D02*
X261Y4348D01*
X285Y4348D02*
X291Y4348D01*
X254Y4347D02*
X260Y4347D01*
X285Y4347D02*
X291Y4347D01*
X254Y4346D02*
X260Y4346D01*
X286Y4346D02*
X292Y4346D01*
X254Y4345D02*
X260Y4345D01*
X286Y4345D02*
X292Y4345D01*
X254Y4344D02*
X260Y4344D01*
X286Y4344D02*
X292Y4344D01*
X254Y4343D02*
X260Y4343D01*
X286Y4343D02*
X292Y4343D01*
X986Y4343D02*
X989Y4343D01*
X254Y4342D02*
X260Y4342D01*
X286Y4342D02*
X292Y4342D01*
X985Y4342D02*
X991Y4342D01*
X254Y4341D02*
X260Y4341D01*
X286Y4341D02*
X292Y4341D01*
X985Y4341D02*
X993Y4341D01*
X254Y4340D02*
X260Y4340D01*
X286Y4340D02*
X292Y4340D01*
X984Y4340D02*
X994Y4340D01*
X254Y4339D02*
X260Y4339D01*
X285Y4339D02*
X291Y4339D01*
X985Y4339D02*
X994Y4339D01*
X254Y4338D02*
X261Y4338D01*
X285Y4338D02*
X291Y4338D01*
X985Y4338D02*
X995Y4338D01*
X254Y4337D02*
X261Y4337D01*
X284Y4337D02*
X291Y4337D01*
X987Y4337D02*
X995Y4337D01*
X255Y4336D02*
X262Y4336D01*
X283Y4336D02*
X291Y4336D01*
X945Y4336D02*
X948Y4336D01*
X988Y4336D02*
X996Y4336D01*
X255Y4335D02*
X264Y4335D01*
X282Y4335D02*
X290Y4335D01*
X944Y4335D02*
X949Y4335D01*
X990Y4335D02*
X996Y4335D01*
X256Y4334D02*
X289Y4334D01*
X944Y4334D02*
X949Y4334D01*
X990Y4334D02*
X996Y4334D01*
X257Y4333D02*
X288Y4333D01*
X944Y4333D02*
X950Y4333D01*
X990Y4333D02*
X996Y4333D01*
X258Y4332D02*
X288Y4332D01*
X944Y4332D02*
X950Y4332D01*
X990Y4332D02*
X996Y4332D01*
X259Y4331D02*
X287Y4331D01*
X944Y4331D02*
X950Y4331D01*
X990Y4331D02*
X996Y4331D01*
X260Y4330D02*
X286Y4330D01*
X944Y4330D02*
X950Y4330D01*
X990Y4330D02*
X996Y4330D01*
X261Y4329D02*
X284Y4329D01*
X944Y4329D02*
X950Y4329D01*
X990Y4329D02*
X996Y4329D01*
X264Y4328D02*
X282Y4328D01*
X944Y4328D02*
X950Y4328D01*
X990Y4328D02*
X996Y4328D01*
X944Y4327D02*
X950Y4327D01*
X990Y4327D02*
X996Y4327D01*
X928Y4326D02*
X933Y4326D01*
X944Y4326D02*
X950Y4326D01*
X990Y4326D02*
X996Y4326D01*
X927Y4325D02*
X934Y4325D01*
X944Y4325D02*
X950Y4325D01*
X990Y4325D02*
X996Y4325D01*
X926Y4324D02*
X935Y4324D01*
X944Y4324D02*
X950Y4324D01*
X989Y4324D02*
X996Y4324D01*
X926Y4323D02*
X935Y4323D01*
X944Y4323D02*
X995Y4323D01*
X926Y4322D02*
X935Y4322D01*
X944Y4322D02*
X995Y4322D01*
X926Y4321D02*
X935Y4321D01*
X944Y4321D02*
X994Y4321D01*
X926Y4320D02*
X935Y4320D01*
X944Y4320D02*
X994Y4320D01*
X926Y4319D02*
X935Y4319D01*
X944Y4319D02*
X993Y4319D01*
X927Y4318D02*
X935Y4318D01*
X944Y4318D02*
X992Y4318D01*
X928Y4317D02*
X934Y4317D01*
X945Y4317D02*
X990Y4317D01*
X240Y4308D02*
X244Y4308D01*
X287Y4308D02*
X290Y4308D01*
X240Y4307D02*
X245Y4307D01*
X286Y4307D02*
X291Y4307D01*
X239Y4306D02*
X245Y4306D01*
X286Y4306D02*
X292Y4306D01*
X239Y4305D02*
X245Y4305D01*
X286Y4305D02*
X292Y4305D01*
X239Y4304D02*
X245Y4304D01*
X286Y4304D02*
X292Y4304D01*
X239Y4303D02*
X245Y4303D01*
X286Y4303D02*
X292Y4303D01*
X239Y4302D02*
X245Y4302D01*
X286Y4302D02*
X292Y4302D01*
X239Y4301D02*
X245Y4301D01*
X286Y4301D02*
X292Y4301D01*
X239Y4300D02*
X245Y4300D01*
X286Y4300D02*
X292Y4300D01*
X239Y4299D02*
X245Y4299D01*
X286Y4299D02*
X292Y4299D01*
X239Y4298D02*
X292Y4298D01*
X239Y4297D02*
X292Y4297D01*
X239Y4296D02*
X292Y4296D01*
X239Y4295D02*
X292Y4295D01*
X240Y4294D02*
X292Y4294D01*
X240Y4293D02*
X292Y4293D01*
X930Y4293D02*
X934Y4293D01*
X977Y4293D02*
X980Y4293D01*
X242Y4292D02*
X292Y4292D01*
X930Y4292D02*
X935Y4292D01*
X976Y4292D02*
X981Y4292D01*
X286Y4291D02*
X292Y4291D01*
X929Y4291D02*
X935Y4291D01*
X976Y4291D02*
X981Y4291D01*
X286Y4290D02*
X292Y4290D01*
X929Y4290D02*
X935Y4290D01*
X976Y4290D02*
X982Y4290D01*
X286Y4289D02*
X292Y4289D01*
X929Y4289D02*
X935Y4289D01*
X976Y4289D02*
X982Y4289D01*
X286Y4288D02*
X292Y4288D01*
X929Y4288D02*
X935Y4288D01*
X976Y4288D02*
X982Y4288D01*
X286Y4287D02*
X292Y4287D01*
X929Y4287D02*
X935Y4287D01*
X976Y4287D02*
X982Y4287D01*
X286Y4286D02*
X292Y4286D01*
X929Y4286D02*
X935Y4286D01*
X976Y4286D02*
X982Y4286D01*
X286Y4285D02*
X292Y4285D01*
X929Y4285D02*
X935Y4285D01*
X976Y4285D02*
X982Y4285D01*
X286Y4284D02*
X291Y4284D01*
X929Y4284D02*
X935Y4284D01*
X975Y4284D02*
X982Y4284D01*
X287Y4283D02*
X291Y4283D01*
X929Y4283D02*
X982Y4283D01*
X288Y4282D02*
X290Y4282D01*
X929Y4282D02*
X982Y4282D01*
X929Y4281D02*
X982Y4281D01*
X929Y4280D02*
X982Y4280D01*
X929Y4279D02*
X982Y4279D01*
X930Y4278D02*
X982Y4278D01*
X932Y4277D02*
X982Y4277D01*
X976Y4276D02*
X982Y4276D01*
X976Y4275D02*
X982Y4275D01*
X976Y4274D02*
X982Y4274D01*
X976Y4273D02*
X982Y4273D01*
X976Y4272D02*
X982Y4272D01*
X976Y4271D02*
X982Y4271D01*
X976Y4270D02*
X982Y4270D01*
X976Y4269D02*
X981Y4269D01*
X977Y4268D02*
X981Y4268D01*
X978Y4267D02*
X979Y4267D01*
X256Y4262D02*
X284Y4262D01*
X255Y4261D02*
X287Y4261D01*
X254Y4260D02*
X288Y4260D01*
X254Y4259D02*
X289Y4259D01*
X254Y4258D02*
X290Y4258D01*
X254Y4257D02*
X290Y4257D01*
X255Y4256D02*
X291Y4256D01*
X284Y4255D02*
X291Y4255D01*
X285Y4254D02*
X291Y4254D01*
X286Y4253D02*
X292Y4253D01*
X286Y4252D02*
X292Y4252D01*
X286Y4251D02*
X292Y4251D01*
X286Y4250D02*
X292Y4250D01*
X286Y4249D02*
X292Y4249D01*
X286Y4248D02*
X292Y4248D01*
X286Y4247D02*
X291Y4247D01*
X285Y4246D02*
X291Y4246D01*
X284Y4245D02*
X291Y4245D01*
X284Y4244D02*
X291Y4244D01*
X283Y4243D02*
X290Y4243D01*
X284Y4242D02*
X290Y4242D01*
X287Y4241D02*
X289Y4241D01*
X255Y3965D02*
X258Y3965D01*
X254Y3964D02*
X259Y3964D01*
X254Y3963D02*
X260Y3963D01*
X254Y3962D02*
X260Y3962D01*
X254Y3961D02*
X260Y3961D01*
X254Y3960D02*
X260Y3960D01*
X245Y3959D02*
X282Y3959D01*
X243Y3958D02*
X286Y3958D01*
X242Y3957D02*
X287Y3957D01*
X242Y3956D02*
X289Y3956D01*
X242Y3955D02*
X289Y3955D01*
X243Y3954D02*
X290Y3954D01*
X243Y3953D02*
X291Y3953D01*
X253Y3952D02*
X260Y3952D01*
X283Y3952D02*
X291Y3952D01*
X254Y3951D02*
X260Y3951D01*
X285Y3951D02*
X291Y3951D01*
X254Y3950D02*
X260Y3950D01*
X285Y3950D02*
X292Y3950D01*
X955Y3950D02*
X970Y3950D01*
X254Y3949D02*
X260Y3949D01*
X286Y3949D02*
X292Y3949D01*
X953Y3949D02*
X972Y3949D01*
X254Y3948D02*
X260Y3948D01*
X286Y3948D02*
X292Y3948D01*
X952Y3948D02*
X973Y3948D01*
X254Y3947D02*
X260Y3947D01*
X286Y3947D02*
X292Y3947D01*
X951Y3947D02*
X974Y3947D01*
X254Y3946D02*
X260Y3946D01*
X286Y3946D02*
X292Y3946D01*
X950Y3946D02*
X975Y3946D01*
X254Y3945D02*
X260Y3945D01*
X286Y3945D02*
X292Y3945D01*
X949Y3945D02*
X976Y3945D01*
X254Y3944D02*
X260Y3944D01*
X286Y3944D02*
X292Y3944D01*
X948Y3944D02*
X977Y3944D01*
X254Y3943D02*
X260Y3943D01*
X286Y3943D02*
X292Y3943D01*
X947Y3943D02*
X956Y3943D01*
X969Y3943D02*
X978Y3943D01*
X254Y3942D02*
X260Y3942D01*
X286Y3942D02*
X292Y3942D01*
X946Y3942D02*
X955Y3942D01*
X970Y3942D02*
X979Y3942D01*
X254Y3941D02*
X260Y3941D01*
X286Y3941D02*
X292Y3941D01*
X946Y3941D02*
X954Y3941D01*
X971Y3941D02*
X979Y3941D01*
X254Y3940D02*
X260Y3940D01*
X285Y3940D02*
X291Y3940D01*
X945Y3940D02*
X953Y3940D01*
X972Y3940D02*
X980Y3940D01*
X254Y3939D02*
X259Y3939D01*
X283Y3939D02*
X291Y3939D01*
X945Y3939D02*
X952Y3939D01*
X973Y3939D02*
X981Y3939D01*
X255Y3938D02*
X258Y3938D01*
X282Y3938D02*
X291Y3938D01*
X944Y3938D02*
X951Y3938D01*
X974Y3938D02*
X981Y3938D01*
X281Y3937D02*
X290Y3937D01*
X944Y3937D02*
X951Y3937D01*
X975Y3937D02*
X981Y3937D01*
X280Y3936D02*
X290Y3936D01*
X944Y3936D02*
X950Y3936D01*
X975Y3936D02*
X981Y3936D01*
X280Y3935D02*
X289Y3935D01*
X944Y3935D02*
X950Y3935D01*
X976Y3935D02*
X982Y3935D01*
X280Y3934D02*
X287Y3934D01*
X944Y3934D02*
X950Y3934D01*
X976Y3934D02*
X982Y3934D01*
X281Y3933D02*
X286Y3933D01*
X944Y3933D02*
X950Y3933D01*
X976Y3933D02*
X982Y3933D01*
X282Y3932D02*
X284Y3932D01*
X944Y3932D02*
X950Y3932D01*
X976Y3932D02*
X982Y3932D01*
X944Y3931D02*
X950Y3931D01*
X976Y3931D02*
X982Y3931D01*
X944Y3930D02*
X950Y3930D01*
X976Y3930D02*
X982Y3930D01*
X944Y3929D02*
X950Y3929D01*
X976Y3929D02*
X982Y3929D01*
X944Y3928D02*
X950Y3928D01*
X976Y3928D02*
X982Y3928D01*
X944Y3927D02*
X950Y3927D01*
X976Y3927D02*
X982Y3927D01*
X944Y3926D02*
X950Y3926D01*
X976Y3926D02*
X982Y3926D01*
X944Y3925D02*
X950Y3925D01*
X976Y3925D02*
X982Y3925D01*
X944Y3924D02*
X950Y3924D01*
X976Y3924D02*
X982Y3924D01*
X944Y3923D02*
X950Y3923D01*
X976Y3923D02*
X982Y3923D01*
X944Y3922D02*
X950Y3922D01*
X976Y3922D02*
X982Y3922D01*
X944Y3921D02*
X950Y3921D01*
X976Y3921D02*
X982Y3921D01*
X944Y3920D02*
X950Y3920D01*
X976Y3920D02*
X982Y3920D01*
X944Y3919D02*
X949Y3919D01*
X976Y3919D02*
X981Y3919D01*
X945Y3918D02*
X949Y3918D01*
X977Y3918D02*
X981Y3918D01*
X946Y3917D02*
X947Y3917D01*
X978Y3917D02*
X979Y3917D01*
X247Y3916D02*
X249Y3916D01*
X268Y3916D02*
X284Y3916D01*
X245Y3915D02*
X250Y3915D01*
X265Y3915D02*
X286Y3915D01*
X244Y3914D02*
X251Y3914D01*
X264Y3914D02*
X288Y3914D01*
X243Y3913D02*
X251Y3913D01*
X262Y3913D02*
X289Y3913D01*
X242Y3912D02*
X251Y3912D01*
X262Y3912D02*
X290Y3912D01*
X241Y3911D02*
X250Y3911D01*
X261Y3911D02*
X290Y3911D01*
X241Y3910D02*
X249Y3910D01*
X260Y3910D02*
X291Y3910D01*
X240Y3909D02*
X248Y3909D01*
X260Y3909D02*
X267Y3909D01*
X284Y3909D02*
X291Y3909D01*
X240Y3908D02*
X247Y3908D01*
X260Y3908D02*
X266Y3908D01*
X285Y3908D02*
X291Y3908D01*
X240Y3907D02*
X246Y3907D01*
X260Y3907D02*
X266Y3907D01*
X286Y3907D02*
X292Y3907D01*
X239Y3906D02*
X246Y3906D01*
X260Y3906D02*
X265Y3906D01*
X286Y3906D02*
X292Y3906D01*
X239Y3905D02*
X245Y3905D01*
X260Y3905D02*
X265Y3905D01*
X285Y3905D02*
X292Y3905D01*
X239Y3904D02*
X245Y3904D01*
X260Y3904D02*
X265Y3904D01*
X285Y3904D02*
X291Y3904D01*
X239Y3903D02*
X245Y3903D01*
X260Y3903D02*
X266Y3903D01*
X284Y3903D02*
X291Y3903D01*
X239Y3902D02*
X245Y3902D01*
X260Y3902D02*
X291Y3902D01*
X239Y3901D02*
X245Y3901D01*
X260Y3901D02*
X290Y3901D01*
X239Y3900D02*
X245Y3900D01*
X260Y3900D02*
X290Y3900D01*
X239Y3899D02*
X245Y3899D01*
X260Y3899D02*
X289Y3899D01*
X239Y3898D02*
X245Y3898D01*
X260Y3898D02*
X290Y3898D01*
X244Y3897D02*
X245Y3897D01*
X260Y3897D02*
X290Y3897D01*
X990Y3897D02*
X990Y3897D01*
X262Y3896D02*
X291Y3896D01*
X284Y3895D02*
X291Y3895D01*
X285Y3894D02*
X291Y3894D01*
X286Y3893D02*
X292Y3893D01*
X286Y3892D02*
X292Y3892D01*
X285Y3891D02*
X291Y3891D01*
X285Y3890D02*
X291Y3890D01*
X279Y3889D02*
X291Y3889D01*
X281Y3888D02*
X291Y3888D01*
X284Y3887D02*
X290Y3887D01*
X286Y3886D02*
X289Y3886D01*
X288Y3885D02*
X288Y3885D01*
X285Y3619D02*
X286Y3619D01*
X284Y3618D02*
X288Y3618D01*
X265Y3617D02*
X266Y3617D01*
X283Y3617D02*
X289Y3617D01*
X261Y3616D02*
X267Y3616D01*
X283Y3616D02*
X289Y3616D01*
X256Y3615D02*
X268Y3615D01*
X283Y3615D02*
X290Y3615D01*
X255Y3614D02*
X269Y3614D01*
X283Y3614D02*
X290Y3614D01*
X254Y3613D02*
X270Y3613D01*
X284Y3613D02*
X291Y3613D01*
X254Y3612D02*
X270Y3612D01*
X285Y3612D02*
X291Y3612D01*
X254Y3611D02*
X260Y3611D01*
X264Y3611D02*
X271Y3611D01*
X285Y3611D02*
X291Y3611D01*
X254Y3610D02*
X260Y3610D01*
X264Y3610D02*
X271Y3610D01*
X286Y3610D02*
X291Y3610D01*
X254Y3609D02*
X260Y3609D01*
X265Y3609D02*
X271Y3609D01*
X286Y3609D02*
X292Y3609D01*
X254Y3608D02*
X260Y3608D01*
X265Y3608D02*
X272Y3608D01*
X286Y3608D02*
X292Y3608D01*
X254Y3607D02*
X260Y3607D01*
X266Y3607D02*
X272Y3607D01*
X286Y3607D02*
X292Y3607D01*
X254Y3606D02*
X260Y3606D01*
X266Y3606D02*
X273Y3606D01*
X286Y3606D02*
X292Y3606D01*
X254Y3605D02*
X260Y3605D01*
X267Y3605D02*
X273Y3605D01*
X286Y3605D02*
X292Y3605D01*
X254Y3604D02*
X260Y3604D01*
X267Y3604D02*
X274Y3604D01*
X286Y3604D02*
X292Y3604D01*
X254Y3603D02*
X260Y3603D01*
X267Y3603D02*
X274Y3603D01*
X286Y3603D02*
X292Y3603D01*
X254Y3602D02*
X260Y3602D01*
X268Y3602D02*
X274Y3602D01*
X286Y3602D02*
X292Y3602D01*
X254Y3601D02*
X260Y3601D01*
X268Y3601D02*
X275Y3601D01*
X286Y3601D02*
X292Y3601D01*
X254Y3600D02*
X260Y3600D01*
X269Y3600D02*
X275Y3600D01*
X286Y3600D02*
X292Y3600D01*
X254Y3599D02*
X260Y3599D01*
X269Y3599D02*
X276Y3599D01*
X286Y3599D02*
X292Y3599D01*
X254Y3598D02*
X260Y3598D01*
X270Y3598D02*
X276Y3598D01*
X286Y3598D02*
X292Y3598D01*
X254Y3597D02*
X260Y3597D01*
X270Y3597D02*
X277Y3597D01*
X286Y3597D02*
X292Y3597D01*
X254Y3596D02*
X260Y3596D01*
X271Y3596D02*
X277Y3596D01*
X286Y3596D02*
X292Y3596D01*
X254Y3595D02*
X260Y3595D01*
X271Y3595D02*
X277Y3595D01*
X286Y3595D02*
X292Y3595D01*
X254Y3594D02*
X260Y3594D01*
X271Y3594D02*
X278Y3594D01*
X285Y3594D02*
X291Y3594D01*
X254Y3593D02*
X260Y3593D01*
X272Y3593D02*
X279Y3593D01*
X284Y3593D02*
X291Y3593D01*
X254Y3592D02*
X261Y3592D01*
X272Y3592D02*
X291Y3592D01*
X255Y3591D02*
X262Y3591D01*
X273Y3591D02*
X290Y3591D01*
X255Y3590D02*
X262Y3590D01*
X273Y3590D02*
X290Y3590D01*
X256Y3589D02*
X263Y3589D01*
X274Y3589D02*
X289Y3589D01*
X256Y3588D02*
X262Y3588D01*
X275Y3588D02*
X288Y3588D01*
X257Y3587D02*
X262Y3587D01*
X276Y3587D02*
X287Y3587D01*
X260Y3586D02*
X260Y3586D01*
X278Y3586D02*
X285Y3586D01*
X255Y3569D02*
X258Y3569D01*
X254Y3568D02*
X259Y3568D01*
X254Y3567D02*
X260Y3567D01*
X254Y3566D02*
X260Y3566D01*
X254Y3565D02*
X260Y3565D01*
X254Y3564D02*
X260Y3564D01*
X245Y3563D02*
X282Y3563D01*
X243Y3562D02*
X286Y3562D01*
X242Y3561D02*
X287Y3561D01*
X242Y3560D02*
X289Y3560D01*
X242Y3559D02*
X289Y3559D01*
X243Y3558D02*
X290Y3558D01*
X243Y3557D02*
X291Y3557D01*
X253Y3556D02*
X260Y3556D01*
X283Y3556D02*
X291Y3556D01*
X254Y3555D02*
X260Y3555D01*
X285Y3555D02*
X291Y3555D01*
X254Y3554D02*
X260Y3554D01*
X285Y3554D02*
X292Y3554D01*
X254Y3553D02*
X260Y3553D01*
X286Y3553D02*
X292Y3553D01*
X254Y3552D02*
X260Y3552D01*
X286Y3552D02*
X292Y3552D01*
X254Y3551D02*
X260Y3551D01*
X286Y3551D02*
X292Y3551D01*
X254Y3550D02*
X260Y3550D01*
X286Y3550D02*
X292Y3550D01*
X254Y3549D02*
X260Y3549D01*
X286Y3549D02*
X292Y3549D01*
X254Y3548D02*
X260Y3548D01*
X286Y3548D02*
X292Y3548D01*
X232Y3547D02*
X243Y3547D01*
X254Y3547D02*
X260Y3547D01*
X286Y3547D02*
X292Y3547D01*
X491Y3547D02*
X502Y3547D01*
X751Y3547D02*
X762Y3547D01*
X1010Y3547D02*
X1021Y3547D01*
X230Y3546D02*
X244Y3546D01*
X254Y3546D02*
X260Y3546D01*
X286Y3546D02*
X292Y3546D01*
X490Y3546D02*
X503Y3546D01*
X749Y3546D02*
X763Y3546D01*
X1009Y3546D02*
X1022Y3546D01*
X230Y3545D02*
X245Y3545D01*
X254Y3545D02*
X260Y3545D01*
X286Y3545D02*
X292Y3545D01*
X489Y3545D02*
X504Y3545D01*
X749Y3545D02*
X764Y3545D01*
X1008Y3545D02*
X1023Y3545D01*
X229Y3544D02*
X245Y3544D01*
X254Y3544D02*
X260Y3544D01*
X285Y3544D02*
X291Y3544D01*
X488Y3544D02*
X505Y3544D01*
X748Y3544D02*
X764Y3544D01*
X1007Y3544D02*
X1024Y3544D01*
X229Y3543D02*
X246Y3543D01*
X254Y3543D02*
X259Y3543D01*
X284Y3543D02*
X291Y3543D01*
X488Y3543D02*
X505Y3543D01*
X748Y3543D02*
X765Y3543D01*
X1007Y3543D02*
X1024Y3543D01*
X163Y3542D02*
X186Y3542D01*
X229Y3542D02*
X246Y3542D01*
X255Y3542D02*
X258Y3542D01*
X282Y3542D02*
X291Y3542D01*
X423Y3542D02*
X445Y3542D01*
X488Y3542D02*
X505Y3542D01*
X682Y3542D02*
X705Y3542D01*
X748Y3542D02*
X765Y3542D01*
X942Y3542D02*
X964Y3542D01*
X1007Y3542D02*
X1024Y3542D01*
X162Y3541D02*
X187Y3541D01*
X229Y3541D02*
X246Y3541D01*
X281Y3541D02*
X290Y3541D01*
X421Y3541D02*
X446Y3541D01*
X488Y3541D02*
X505Y3541D01*
X681Y3541D02*
X706Y3541D01*
X748Y3541D02*
X765Y3541D01*
X940Y3541D02*
X966Y3541D01*
X1007Y3541D02*
X1024Y3541D01*
X161Y3540D02*
X188Y3540D01*
X229Y3540D02*
X246Y3540D01*
X280Y3540D02*
X290Y3540D01*
X420Y3540D02*
X447Y3540D01*
X488Y3540D02*
X505Y3540D01*
X680Y3540D02*
X707Y3540D01*
X748Y3540D02*
X765Y3540D01*
X939Y3540D02*
X966Y3540D01*
X1007Y3540D02*
X1024Y3540D01*
X160Y3539D02*
X188Y3539D01*
X229Y3539D02*
X246Y3539D01*
X280Y3539D02*
X289Y3539D01*
X420Y3539D02*
X448Y3539D01*
X488Y3539D02*
X505Y3539D01*
X679Y3539D02*
X707Y3539D01*
X748Y3539D02*
X765Y3539D01*
X939Y3539D02*
X967Y3539D01*
X1007Y3539D02*
X1024Y3539D01*
X160Y3538D02*
X189Y3538D01*
X229Y3538D02*
X246Y3538D01*
X280Y3538D02*
X287Y3538D01*
X420Y3538D02*
X448Y3538D01*
X488Y3538D02*
X505Y3538D01*
X679Y3538D02*
X708Y3538D01*
X748Y3538D02*
X765Y3538D01*
X939Y3538D02*
X967Y3538D01*
X1007Y3538D02*
X1024Y3538D01*
X160Y3537D02*
X189Y3537D01*
X229Y3537D02*
X246Y3537D01*
X281Y3537D02*
X286Y3537D01*
X419Y3537D02*
X448Y3537D01*
X488Y3537D02*
X505Y3537D01*
X679Y3537D02*
X708Y3537D01*
X748Y3537D02*
X765Y3537D01*
X938Y3537D02*
X967Y3537D01*
X1007Y3537D02*
X1024Y3537D01*
X160Y3536D02*
X189Y3536D01*
X229Y3536D02*
X246Y3536D01*
X282Y3536D02*
X284Y3536D01*
X419Y3536D02*
X448Y3536D01*
X488Y3536D02*
X505Y3536D01*
X679Y3536D02*
X708Y3536D01*
X748Y3536D02*
X765Y3536D01*
X938Y3536D02*
X967Y3536D01*
X1007Y3536D02*
X1024Y3536D01*
X160Y3535D02*
X188Y3535D01*
X229Y3535D02*
X245Y3535D01*
X419Y3535D02*
X448Y3535D01*
X488Y3535D02*
X505Y3535D01*
X679Y3535D02*
X707Y3535D01*
X748Y3535D02*
X764Y3535D01*
X938Y3535D02*
X967Y3535D01*
X1007Y3535D02*
X1024Y3535D01*
X160Y3534D02*
X188Y3534D01*
X229Y3534D02*
X245Y3534D01*
X419Y3534D02*
X447Y3534D01*
X489Y3534D02*
X504Y3534D01*
X679Y3534D02*
X707Y3534D01*
X748Y3534D02*
X764Y3534D01*
X938Y3534D02*
X966Y3534D01*
X1008Y3534D02*
X1023Y3534D01*
X160Y3533D02*
X187Y3533D01*
X230Y3533D02*
X244Y3533D01*
X419Y3533D02*
X447Y3533D01*
X490Y3533D02*
X504Y3533D01*
X679Y3533D02*
X706Y3533D01*
X749Y3533D02*
X763Y3533D01*
X938Y3533D02*
X966Y3533D01*
X1009Y3533D02*
X1023Y3533D01*
X160Y3532D02*
X186Y3532D01*
X231Y3532D02*
X243Y3532D01*
X419Y3532D02*
X446Y3532D01*
X491Y3532D02*
X503Y3532D01*
X679Y3532D02*
X705Y3532D01*
X750Y3532D02*
X762Y3532D01*
X938Y3532D02*
X965Y3532D01*
X1010Y3532D02*
X1022Y3532D01*
X160Y3531D02*
X184Y3531D01*
X233Y3531D02*
X241Y3531D01*
X419Y3531D02*
X444Y3531D01*
X493Y3531D02*
X501Y3531D01*
X679Y3531D02*
X703Y3531D01*
X752Y3531D02*
X760Y3531D01*
X938Y3531D02*
X963Y3531D01*
X1012Y3531D02*
X1020Y3531D01*
X160Y3530D02*
X171Y3530D01*
X419Y3530D02*
X430Y3530D01*
X679Y3530D02*
X690Y3530D01*
X938Y3530D02*
X950Y3530D01*
X160Y3529D02*
X171Y3529D01*
X419Y3529D02*
X430Y3529D01*
X679Y3529D02*
X690Y3529D01*
X938Y3529D02*
X950Y3529D01*
X160Y3528D02*
X171Y3528D01*
X419Y3528D02*
X430Y3528D01*
X679Y3528D02*
X690Y3528D01*
X938Y3528D02*
X950Y3528D01*
X160Y3527D02*
X171Y3527D01*
X419Y3527D02*
X430Y3527D01*
X679Y3527D02*
X690Y3527D01*
X938Y3527D02*
X950Y3527D01*
X160Y3526D02*
X171Y3526D01*
X419Y3526D02*
X430Y3526D01*
X679Y3526D02*
X690Y3526D01*
X938Y3526D02*
X950Y3526D01*
X160Y3525D02*
X171Y3525D01*
X419Y3525D02*
X430Y3525D01*
X679Y3525D02*
X690Y3525D01*
X938Y3525D02*
X950Y3525D01*
X160Y3524D02*
X171Y3524D01*
X419Y3524D02*
X430Y3524D01*
X679Y3524D02*
X690Y3524D01*
X938Y3524D02*
X950Y3524D01*
X160Y3523D02*
X171Y3523D01*
X419Y3523D02*
X430Y3523D01*
X679Y3523D02*
X690Y3523D01*
X938Y3523D02*
X950Y3523D01*
X160Y3522D02*
X171Y3522D01*
X419Y3522D02*
X430Y3522D01*
X679Y3522D02*
X690Y3522D01*
X938Y3522D02*
X950Y3522D01*
X160Y3521D02*
X171Y3521D01*
X419Y3521D02*
X430Y3521D01*
X679Y3521D02*
X690Y3521D01*
X938Y3521D02*
X950Y3521D01*
X160Y3520D02*
X171Y3520D01*
X264Y3520D02*
X282Y3520D01*
X419Y3520D02*
X430Y3520D01*
X679Y3520D02*
X690Y3520D01*
X938Y3520D02*
X950Y3520D01*
X160Y3519D02*
X171Y3519D01*
X262Y3519D02*
X284Y3519D01*
X419Y3519D02*
X430Y3519D01*
X679Y3519D02*
X690Y3519D01*
X938Y3519D02*
X950Y3519D01*
X160Y3518D02*
X171Y3518D01*
X260Y3518D02*
X286Y3518D01*
X419Y3518D02*
X430Y3518D01*
X679Y3518D02*
X690Y3518D01*
X938Y3518D02*
X950Y3518D01*
X53Y3517D02*
X84Y3517D01*
X160Y3517D02*
X171Y3517D01*
X232Y3517D02*
X287Y3517D01*
X313Y3517D02*
X344Y3517D01*
X419Y3517D02*
X430Y3517D01*
X492Y3517D02*
X519Y3517D01*
X572Y3517D02*
X603Y3517D01*
X679Y3517D02*
X690Y3517D01*
X751Y3517D02*
X779Y3517D01*
X832Y3517D02*
X863Y3517D01*
X938Y3517D02*
X950Y3517D01*
X1011Y3517D02*
X1038Y3517D01*
X52Y3516D02*
X87Y3516D01*
X160Y3516D02*
X171Y3516D01*
X231Y3516D02*
X288Y3516D01*
X311Y3516D02*
X347Y3516D01*
X419Y3516D02*
X430Y3516D01*
X490Y3516D02*
X521Y3516D01*
X571Y3516D02*
X606Y3516D01*
X679Y3516D02*
X690Y3516D01*
X750Y3516D02*
X780Y3516D01*
X830Y3516D02*
X866Y3516D01*
X938Y3516D02*
X950Y3516D01*
X1009Y3516D02*
X1040Y3516D01*
X51Y3515D02*
X90Y3515D01*
X160Y3515D02*
X171Y3515D01*
X230Y3515D02*
X288Y3515D01*
X310Y3515D02*
X349Y3515D01*
X419Y3515D02*
X430Y3515D01*
X489Y3515D02*
X522Y3515D01*
X570Y3515D02*
X609Y3515D01*
X679Y3515D02*
X690Y3515D01*
X749Y3515D02*
X781Y3515D01*
X829Y3515D02*
X868Y3515D01*
X938Y3515D02*
X950Y3515D01*
X1008Y3515D02*
X1041Y3515D01*
X50Y3514D02*
X91Y3514D01*
X160Y3514D02*
X171Y3514D01*
X229Y3514D02*
X289Y3514D01*
X310Y3514D02*
X351Y3514D01*
X419Y3514D02*
X430Y3514D01*
X489Y3514D02*
X522Y3514D01*
X569Y3514D02*
X610Y3514D01*
X679Y3514D02*
X690Y3514D01*
X748Y3514D02*
X782Y3514D01*
X829Y3514D02*
X870Y3514D01*
X938Y3514D02*
X950Y3514D01*
X1008Y3514D02*
X1041Y3514D01*
X50Y3513D02*
X93Y3513D01*
X160Y3513D02*
X171Y3513D01*
X229Y3513D02*
X264Y3513D01*
X270Y3513D02*
X276Y3513D01*
X281Y3513D02*
X290Y3513D01*
X309Y3513D02*
X352Y3513D01*
X419Y3513D02*
X430Y3513D01*
X488Y3513D02*
X523Y3513D01*
X569Y3513D02*
X612Y3513D01*
X679Y3513D02*
X690Y3513D01*
X748Y3513D02*
X782Y3513D01*
X828Y3513D02*
X871Y3513D01*
X938Y3513D02*
X950Y3513D01*
X1007Y3513D02*
X1042Y3513D01*
X50Y3512D02*
X94Y3512D01*
X160Y3512D02*
X171Y3512D01*
X229Y3512D02*
X263Y3512D01*
X270Y3512D02*
X276Y3512D01*
X283Y3512D02*
X290Y3512D01*
X309Y3512D02*
X353Y3512D01*
X419Y3512D02*
X430Y3512D01*
X488Y3512D02*
X523Y3512D01*
X569Y3512D02*
X613Y3512D01*
X679Y3512D02*
X690Y3512D01*
X748Y3512D02*
X782Y3512D01*
X828Y3512D02*
X872Y3512D01*
X938Y3512D02*
X950Y3512D01*
X1007Y3512D02*
X1042Y3512D01*
X50Y3511D02*
X95Y3511D01*
X160Y3511D02*
X171Y3511D01*
X229Y3511D02*
X263Y3511D01*
X270Y3511D02*
X276Y3511D01*
X284Y3511D02*
X291Y3511D01*
X309Y3511D02*
X354Y3511D01*
X419Y3511D02*
X430Y3511D01*
X488Y3511D02*
X523Y3511D01*
X569Y3511D02*
X614Y3511D01*
X679Y3511D02*
X690Y3511D01*
X748Y3511D02*
X782Y3511D01*
X828Y3511D02*
X873Y3511D01*
X938Y3511D02*
X950Y3511D01*
X1007Y3511D02*
X1042Y3511D01*
X50Y3510D02*
X96Y3510D01*
X160Y3510D02*
X171Y3510D01*
X229Y3510D02*
X263Y3510D01*
X270Y3510D02*
X276Y3510D01*
X285Y3510D02*
X291Y3510D01*
X309Y3510D02*
X356Y3510D01*
X419Y3510D02*
X430Y3510D01*
X488Y3510D02*
X523Y3510D01*
X569Y3510D02*
X615Y3510D01*
X679Y3510D02*
X690Y3510D01*
X748Y3510D02*
X782Y3510D01*
X828Y3510D02*
X875Y3510D01*
X938Y3510D02*
X950Y3510D01*
X1007Y3510D02*
X1042Y3510D01*
X50Y3509D02*
X97Y3509D01*
X160Y3509D02*
X171Y3509D01*
X229Y3509D02*
X263Y3509D01*
X270Y3509D02*
X276Y3509D01*
X285Y3509D02*
X291Y3509D01*
X310Y3509D02*
X357Y3509D01*
X419Y3509D02*
X430Y3509D01*
X488Y3509D02*
X522Y3509D01*
X569Y3509D02*
X616Y3509D01*
X679Y3509D02*
X690Y3509D01*
X748Y3509D02*
X782Y3509D01*
X829Y3509D02*
X876Y3509D01*
X938Y3509D02*
X950Y3509D01*
X1007Y3509D02*
X1041Y3509D01*
X51Y3508D02*
X98Y3508D01*
X160Y3508D02*
X171Y3508D01*
X229Y3508D02*
X262Y3508D01*
X270Y3508D02*
X276Y3508D01*
X286Y3508D02*
X292Y3508D01*
X310Y3508D02*
X358Y3508D01*
X419Y3508D02*
X430Y3508D01*
X488Y3508D02*
X522Y3508D01*
X570Y3508D02*
X617Y3508D01*
X679Y3508D02*
X690Y3508D01*
X748Y3508D02*
X781Y3508D01*
X829Y3508D02*
X877Y3508D01*
X938Y3508D02*
X950Y3508D01*
X1007Y3508D02*
X1041Y3508D01*
X52Y3507D02*
X99Y3507D01*
X160Y3507D02*
X171Y3507D01*
X229Y3507D02*
X261Y3507D01*
X270Y3507D02*
X276Y3507D01*
X286Y3507D02*
X292Y3507D01*
X311Y3507D02*
X359Y3507D01*
X419Y3507D02*
X430Y3507D01*
X488Y3507D02*
X521Y3507D01*
X571Y3507D02*
X618Y3507D01*
X679Y3507D02*
X690Y3507D01*
X748Y3507D02*
X780Y3507D01*
X830Y3507D02*
X878Y3507D01*
X938Y3507D02*
X950Y3507D01*
X1007Y3507D02*
X1040Y3507D01*
X53Y3506D02*
X100Y3506D01*
X160Y3506D02*
X171Y3506D01*
X229Y3506D02*
X260Y3506D01*
X270Y3506D02*
X276Y3506D01*
X286Y3506D02*
X292Y3506D01*
X313Y3506D02*
X360Y3506D01*
X419Y3506D02*
X430Y3506D01*
X488Y3506D02*
X519Y3506D01*
X572Y3506D02*
X619Y3506D01*
X679Y3506D02*
X690Y3506D01*
X748Y3506D02*
X779Y3506D01*
X832Y3506D02*
X879Y3506D01*
X938Y3506D02*
X950Y3506D01*
X1007Y3506D02*
X1038Y3506D01*
X83Y3505D02*
X101Y3505D01*
X160Y3505D02*
X171Y3505D01*
X229Y3505D02*
X240Y3505D01*
X254Y3505D02*
X260Y3505D01*
X270Y3505D02*
X276Y3505D01*
X286Y3505D02*
X292Y3505D01*
X343Y3505D02*
X361Y3505D01*
X419Y3505D02*
X430Y3505D01*
X488Y3505D02*
X499Y3505D01*
X602Y3505D02*
X620Y3505D01*
X679Y3505D02*
X690Y3505D01*
X748Y3505D02*
X759Y3505D01*
X862Y3505D02*
X880Y3505D01*
X938Y3505D02*
X950Y3505D01*
X1007Y3505D02*
X1018Y3505D01*
X85Y3504D02*
X102Y3504D01*
X160Y3504D02*
X171Y3504D01*
X229Y3504D02*
X240Y3504D01*
X254Y3504D02*
X260Y3504D01*
X270Y3504D02*
X276Y3504D01*
X286Y3504D02*
X292Y3504D01*
X344Y3504D02*
X362Y3504D01*
X419Y3504D02*
X430Y3504D01*
X488Y3504D02*
X499Y3504D01*
X604Y3504D02*
X621Y3504D01*
X679Y3504D02*
X690Y3504D01*
X748Y3504D02*
X759Y3504D01*
X863Y3504D02*
X881Y3504D01*
X938Y3504D02*
X950Y3504D01*
X1007Y3504D02*
X1018Y3504D01*
X86Y3503D02*
X103Y3503D01*
X160Y3503D02*
X171Y3503D01*
X229Y3503D02*
X240Y3503D01*
X254Y3503D02*
X260Y3503D01*
X270Y3503D02*
X276Y3503D01*
X286Y3503D02*
X292Y3503D01*
X345Y3503D02*
X363Y3503D01*
X419Y3503D02*
X430Y3503D01*
X488Y3503D02*
X499Y3503D01*
X605Y3503D02*
X622Y3503D01*
X679Y3503D02*
X690Y3503D01*
X748Y3503D02*
X759Y3503D01*
X864Y3503D02*
X882Y3503D01*
X938Y3503D02*
X950Y3503D01*
X1007Y3503D02*
X1018Y3503D01*
X87Y3502D02*
X104Y3502D01*
X160Y3502D02*
X171Y3502D01*
X229Y3502D02*
X240Y3502D01*
X254Y3502D02*
X260Y3502D01*
X270Y3502D02*
X276Y3502D01*
X286Y3502D02*
X292Y3502D01*
X347Y3502D02*
X364Y3502D01*
X419Y3502D02*
X430Y3502D01*
X488Y3502D02*
X499Y3502D01*
X606Y3502D02*
X623Y3502D01*
X679Y3502D02*
X690Y3502D01*
X748Y3502D02*
X759Y3502D01*
X866Y3502D02*
X883Y3502D01*
X938Y3502D02*
X950Y3502D01*
X1007Y3502D02*
X1018Y3502D01*
X88Y3501D02*
X105Y3501D01*
X160Y3501D02*
X171Y3501D01*
X229Y3501D02*
X240Y3501D01*
X254Y3501D02*
X260Y3501D01*
X270Y3501D02*
X276Y3501D01*
X286Y3501D02*
X292Y3501D01*
X348Y3501D02*
X364Y3501D01*
X419Y3501D02*
X430Y3501D01*
X488Y3501D02*
X499Y3501D01*
X607Y3501D02*
X624Y3501D01*
X679Y3501D02*
X690Y3501D01*
X748Y3501D02*
X759Y3501D01*
X867Y3501D02*
X883Y3501D01*
X938Y3501D02*
X950Y3501D01*
X1007Y3501D02*
X1018Y3501D01*
X89Y3500D02*
X106Y3500D01*
X160Y3500D02*
X171Y3500D01*
X229Y3500D02*
X240Y3500D01*
X254Y3500D02*
X260Y3500D01*
X270Y3500D02*
X276Y3500D01*
X286Y3500D02*
X292Y3500D01*
X349Y3500D02*
X365Y3500D01*
X419Y3500D02*
X430Y3500D01*
X488Y3500D02*
X499Y3500D01*
X608Y3500D02*
X625Y3500D01*
X679Y3500D02*
X690Y3500D01*
X748Y3500D02*
X759Y3500D01*
X868Y3500D02*
X884Y3500D01*
X938Y3500D02*
X950Y3500D01*
X1007Y3500D02*
X1018Y3500D01*
X91Y3499D02*
X106Y3499D01*
X160Y3499D02*
X171Y3499D01*
X229Y3499D02*
X240Y3499D01*
X254Y3499D02*
X260Y3499D01*
X270Y3499D02*
X276Y3499D01*
X286Y3499D02*
X292Y3499D01*
X350Y3499D02*
X366Y3499D01*
X419Y3499D02*
X430Y3499D01*
X488Y3499D02*
X499Y3499D01*
X610Y3499D02*
X625Y3499D01*
X679Y3499D02*
X690Y3499D01*
X748Y3499D02*
X759Y3499D01*
X869Y3499D02*
X885Y3499D01*
X938Y3499D02*
X950Y3499D01*
X1007Y3499D02*
X1018Y3499D01*
X92Y3498D02*
X107Y3498D01*
X160Y3498D02*
X171Y3498D01*
X229Y3498D02*
X240Y3498D01*
X254Y3498D02*
X260Y3498D01*
X270Y3498D02*
X276Y3498D01*
X286Y3498D02*
X292Y3498D01*
X351Y3498D02*
X366Y3498D01*
X419Y3498D02*
X430Y3498D01*
X488Y3498D02*
X499Y3498D01*
X611Y3498D02*
X626Y3498D01*
X679Y3498D02*
X690Y3498D01*
X748Y3498D02*
X759Y3498D01*
X870Y3498D02*
X885Y3498D01*
X938Y3498D02*
X950Y3498D01*
X1007Y3498D02*
X1018Y3498D01*
X93Y3497D02*
X107Y3497D01*
X160Y3497D02*
X171Y3497D01*
X229Y3497D02*
X240Y3497D01*
X254Y3497D02*
X260Y3497D01*
X270Y3497D02*
X276Y3497D01*
X286Y3497D02*
X292Y3497D01*
X352Y3497D02*
X367Y3497D01*
X419Y3497D02*
X430Y3497D01*
X488Y3497D02*
X499Y3497D01*
X612Y3497D02*
X626Y3497D01*
X679Y3497D02*
X690Y3497D01*
X748Y3497D02*
X759Y3497D01*
X871Y3497D02*
X886Y3497D01*
X938Y3497D02*
X950Y3497D01*
X1007Y3497D02*
X1018Y3497D01*
X94Y3496D02*
X107Y3496D01*
X160Y3496D02*
X171Y3496D01*
X229Y3496D02*
X240Y3496D01*
X254Y3496D02*
X261Y3496D01*
X270Y3496D02*
X276Y3496D01*
X286Y3496D02*
X292Y3496D01*
X354Y3496D02*
X367Y3496D01*
X419Y3496D02*
X430Y3496D01*
X488Y3496D02*
X499Y3496D01*
X613Y3496D02*
X626Y3496D01*
X679Y3496D02*
X690Y3496D01*
X748Y3496D02*
X759Y3496D01*
X873Y3496D02*
X886Y3496D01*
X938Y3496D02*
X950Y3496D01*
X1007Y3496D02*
X1018Y3496D01*
X95Y3495D02*
X108Y3495D01*
X160Y3495D02*
X171Y3495D01*
X229Y3495D02*
X240Y3495D01*
X255Y3495D02*
X262Y3495D01*
X270Y3495D02*
X276Y3495D01*
X286Y3495D02*
X292Y3495D01*
X355Y3495D02*
X367Y3495D01*
X419Y3495D02*
X430Y3495D01*
X488Y3495D02*
X499Y3495D01*
X614Y3495D02*
X627Y3495D01*
X679Y3495D02*
X690Y3495D01*
X748Y3495D02*
X759Y3495D01*
X874Y3495D02*
X886Y3495D01*
X938Y3495D02*
X950Y3495D01*
X1007Y3495D02*
X1018Y3495D01*
X96Y3494D02*
X108Y3494D01*
X160Y3494D02*
X171Y3494D01*
X229Y3494D02*
X240Y3494D01*
X255Y3494D02*
X263Y3494D01*
X270Y3494D02*
X276Y3494D01*
X286Y3494D02*
X292Y3494D01*
X356Y3494D02*
X367Y3494D01*
X419Y3494D02*
X430Y3494D01*
X488Y3494D02*
X499Y3494D01*
X615Y3494D02*
X627Y3494D01*
X679Y3494D02*
X690Y3494D01*
X748Y3494D02*
X759Y3494D01*
X875Y3494D02*
X886Y3494D01*
X938Y3494D02*
X950Y3494D01*
X1007Y3494D02*
X1018Y3494D01*
X97Y3493D02*
X108Y3493D01*
X160Y3493D02*
X171Y3493D01*
X229Y3493D02*
X240Y3493D01*
X256Y3493D02*
X276Y3493D01*
X286Y3493D02*
X292Y3493D01*
X356Y3493D02*
X367Y3493D01*
X419Y3493D02*
X430Y3493D01*
X488Y3493D02*
X499Y3493D01*
X616Y3493D02*
X627Y3493D01*
X679Y3493D02*
X690Y3493D01*
X748Y3493D02*
X759Y3493D01*
X875Y3493D02*
X886Y3493D01*
X938Y3493D02*
X950Y3493D01*
X1007Y3493D02*
X1018Y3493D01*
X97Y3492D02*
X108Y3492D01*
X160Y3492D02*
X171Y3492D01*
X229Y3492D02*
X240Y3492D01*
X256Y3492D02*
X276Y3492D01*
X286Y3492D02*
X292Y3492D01*
X356Y3492D02*
X368Y3492D01*
X419Y3492D02*
X430Y3492D01*
X488Y3492D02*
X499Y3492D01*
X616Y3492D02*
X627Y3492D01*
X679Y3492D02*
X690Y3492D01*
X748Y3492D02*
X759Y3492D01*
X875Y3492D02*
X887Y3492D01*
X938Y3492D02*
X950Y3492D01*
X1007Y3492D02*
X1018Y3492D01*
X97Y3491D02*
X108Y3491D01*
X160Y3491D02*
X171Y3491D01*
X229Y3491D02*
X240Y3491D01*
X257Y3491D02*
X276Y3491D01*
X286Y3491D02*
X292Y3491D01*
X357Y3491D02*
X368Y3491D01*
X419Y3491D02*
X430Y3491D01*
X488Y3491D02*
X499Y3491D01*
X616Y3491D02*
X627Y3491D01*
X679Y3491D02*
X690Y3491D01*
X748Y3491D02*
X759Y3491D01*
X876Y3491D02*
X887Y3491D01*
X938Y3491D02*
X950Y3491D01*
X1007Y3491D02*
X1018Y3491D01*
X97Y3490D02*
X108Y3490D01*
X160Y3490D02*
X171Y3490D01*
X229Y3490D02*
X240Y3490D01*
X258Y3490D02*
X276Y3490D01*
X286Y3490D02*
X292Y3490D01*
X357Y3490D02*
X368Y3490D01*
X419Y3490D02*
X430Y3490D01*
X488Y3490D02*
X499Y3490D01*
X616Y3490D02*
X627Y3490D01*
X679Y3490D02*
X690Y3490D01*
X748Y3490D02*
X759Y3490D01*
X876Y3490D02*
X887Y3490D01*
X938Y3490D02*
X950Y3490D01*
X1007Y3490D02*
X1018Y3490D01*
X97Y3489D02*
X108Y3489D01*
X160Y3489D02*
X171Y3489D01*
X229Y3489D02*
X240Y3489D01*
X259Y3489D02*
X276Y3489D01*
X286Y3489D02*
X291Y3489D01*
X357Y3489D02*
X368Y3489D01*
X419Y3489D02*
X430Y3489D01*
X488Y3489D02*
X499Y3489D01*
X616Y3489D02*
X627Y3489D01*
X679Y3489D02*
X690Y3489D01*
X748Y3489D02*
X759Y3489D01*
X876Y3489D02*
X887Y3489D01*
X938Y3489D02*
X950Y3489D01*
X1007Y3489D02*
X1018Y3489D01*
X97Y3488D02*
X108Y3488D01*
X160Y3488D02*
X171Y3488D01*
X229Y3488D02*
X240Y3488D01*
X261Y3488D02*
X275Y3488D01*
X286Y3488D02*
X291Y3488D01*
X357Y3488D02*
X368Y3488D01*
X419Y3488D02*
X430Y3488D01*
X488Y3488D02*
X499Y3488D01*
X616Y3488D02*
X627Y3488D01*
X679Y3488D02*
X690Y3488D01*
X748Y3488D02*
X759Y3488D01*
X876Y3488D02*
X887Y3488D01*
X938Y3488D02*
X950Y3488D01*
X1007Y3488D02*
X1018Y3488D01*
X97Y3487D02*
X108Y3487D01*
X160Y3487D02*
X171Y3487D01*
X229Y3487D02*
X240Y3487D01*
X262Y3487D02*
X274Y3487D01*
X287Y3487D02*
X290Y3487D01*
X357Y3487D02*
X368Y3487D01*
X419Y3487D02*
X430Y3487D01*
X488Y3487D02*
X499Y3487D01*
X616Y3487D02*
X627Y3487D01*
X679Y3487D02*
X690Y3487D01*
X748Y3487D02*
X759Y3487D01*
X876Y3487D02*
X887Y3487D01*
X938Y3487D02*
X950Y3487D01*
X1007Y3487D02*
X1018Y3487D01*
X97Y3486D02*
X108Y3486D01*
X160Y3486D02*
X171Y3486D01*
X229Y3486D02*
X240Y3486D01*
X357Y3486D02*
X368Y3486D01*
X419Y3486D02*
X430Y3486D01*
X488Y3486D02*
X499Y3486D01*
X616Y3486D02*
X627Y3486D01*
X679Y3486D02*
X690Y3486D01*
X748Y3486D02*
X759Y3486D01*
X876Y3486D02*
X887Y3486D01*
X938Y3486D02*
X950Y3486D01*
X1007Y3486D02*
X1018Y3486D01*
X97Y3485D02*
X108Y3485D01*
X160Y3485D02*
X171Y3485D01*
X229Y3485D02*
X240Y3485D01*
X357Y3485D02*
X368Y3485D01*
X419Y3485D02*
X430Y3485D01*
X488Y3485D02*
X499Y3485D01*
X616Y3485D02*
X627Y3485D01*
X679Y3485D02*
X690Y3485D01*
X748Y3485D02*
X759Y3485D01*
X876Y3485D02*
X887Y3485D01*
X938Y3485D02*
X950Y3485D01*
X1007Y3485D02*
X1018Y3485D01*
X97Y3484D02*
X108Y3484D01*
X160Y3484D02*
X171Y3484D01*
X229Y3484D02*
X240Y3484D01*
X357Y3484D02*
X368Y3484D01*
X419Y3484D02*
X430Y3484D01*
X488Y3484D02*
X499Y3484D01*
X616Y3484D02*
X627Y3484D01*
X679Y3484D02*
X690Y3484D01*
X748Y3484D02*
X759Y3484D01*
X876Y3484D02*
X887Y3484D01*
X938Y3484D02*
X950Y3484D01*
X1007Y3484D02*
X1018Y3484D01*
X97Y3483D02*
X108Y3483D01*
X160Y3483D02*
X171Y3483D01*
X229Y3483D02*
X240Y3483D01*
X357Y3483D02*
X368Y3483D01*
X419Y3483D02*
X430Y3483D01*
X488Y3483D02*
X499Y3483D01*
X616Y3483D02*
X627Y3483D01*
X679Y3483D02*
X690Y3483D01*
X748Y3483D02*
X759Y3483D01*
X876Y3483D02*
X887Y3483D01*
X938Y3483D02*
X950Y3483D01*
X1007Y3483D02*
X1018Y3483D01*
X97Y3482D02*
X108Y3482D01*
X160Y3482D02*
X171Y3482D01*
X229Y3482D02*
X240Y3482D01*
X357Y3482D02*
X368Y3482D01*
X419Y3482D02*
X430Y3482D01*
X488Y3482D02*
X499Y3482D01*
X616Y3482D02*
X627Y3482D01*
X679Y3482D02*
X690Y3482D01*
X748Y3482D02*
X759Y3482D01*
X876Y3482D02*
X887Y3482D01*
X938Y3482D02*
X950Y3482D01*
X1007Y3482D02*
X1018Y3482D01*
X97Y3481D02*
X108Y3481D01*
X160Y3481D02*
X171Y3481D01*
X229Y3481D02*
X240Y3481D01*
X357Y3481D02*
X368Y3481D01*
X419Y3481D02*
X430Y3481D01*
X488Y3481D02*
X499Y3481D01*
X616Y3481D02*
X627Y3481D01*
X679Y3481D02*
X690Y3481D01*
X748Y3481D02*
X759Y3481D01*
X876Y3481D02*
X887Y3481D01*
X938Y3481D02*
X950Y3481D01*
X1007Y3481D02*
X1018Y3481D01*
X97Y3480D02*
X108Y3480D01*
X160Y3480D02*
X171Y3480D01*
X229Y3480D02*
X240Y3480D01*
X357Y3480D02*
X368Y3480D01*
X419Y3480D02*
X430Y3480D01*
X488Y3480D02*
X499Y3480D01*
X616Y3480D02*
X627Y3480D01*
X679Y3480D02*
X690Y3480D01*
X748Y3480D02*
X759Y3480D01*
X876Y3480D02*
X887Y3480D01*
X938Y3480D02*
X950Y3480D01*
X1007Y3480D02*
X1018Y3480D01*
X97Y3479D02*
X108Y3479D01*
X160Y3479D02*
X171Y3479D01*
X229Y3479D02*
X240Y3479D01*
X357Y3479D02*
X368Y3479D01*
X419Y3479D02*
X430Y3479D01*
X488Y3479D02*
X499Y3479D01*
X616Y3479D02*
X627Y3479D01*
X679Y3479D02*
X690Y3479D01*
X748Y3479D02*
X759Y3479D01*
X876Y3479D02*
X887Y3479D01*
X938Y3479D02*
X950Y3479D01*
X1007Y3479D02*
X1018Y3479D01*
X97Y3478D02*
X108Y3478D01*
X160Y3478D02*
X171Y3478D01*
X229Y3478D02*
X240Y3478D01*
X357Y3478D02*
X368Y3478D01*
X419Y3478D02*
X430Y3478D01*
X488Y3478D02*
X499Y3478D01*
X616Y3478D02*
X627Y3478D01*
X679Y3478D02*
X690Y3478D01*
X748Y3478D02*
X759Y3478D01*
X876Y3478D02*
X887Y3478D01*
X938Y3478D02*
X950Y3478D01*
X1007Y3478D02*
X1018Y3478D01*
X97Y3477D02*
X108Y3477D01*
X160Y3477D02*
X171Y3477D01*
X229Y3477D02*
X240Y3477D01*
X357Y3477D02*
X368Y3477D01*
X419Y3477D02*
X430Y3477D01*
X488Y3477D02*
X499Y3477D01*
X616Y3477D02*
X627Y3477D01*
X679Y3477D02*
X690Y3477D01*
X748Y3477D02*
X759Y3477D01*
X876Y3477D02*
X887Y3477D01*
X938Y3477D02*
X950Y3477D01*
X1007Y3477D02*
X1018Y3477D01*
X97Y3476D02*
X108Y3476D01*
X160Y3476D02*
X171Y3476D01*
X229Y3476D02*
X240Y3476D01*
X357Y3476D02*
X368Y3476D01*
X419Y3476D02*
X430Y3476D01*
X488Y3476D02*
X499Y3476D01*
X616Y3476D02*
X627Y3476D01*
X679Y3476D02*
X690Y3476D01*
X748Y3476D02*
X759Y3476D01*
X876Y3476D02*
X887Y3476D01*
X938Y3476D02*
X950Y3476D01*
X1007Y3476D02*
X1018Y3476D01*
X97Y3475D02*
X108Y3475D01*
X160Y3475D02*
X171Y3475D01*
X229Y3475D02*
X240Y3475D01*
X356Y3475D02*
X368Y3475D01*
X419Y3475D02*
X430Y3475D01*
X488Y3475D02*
X499Y3475D01*
X616Y3475D02*
X627Y3475D01*
X679Y3475D02*
X690Y3475D01*
X748Y3475D02*
X759Y3475D01*
X875Y3475D02*
X887Y3475D01*
X938Y3475D02*
X950Y3475D01*
X1007Y3475D02*
X1018Y3475D01*
X97Y3474D02*
X108Y3474D01*
X160Y3474D02*
X171Y3474D01*
X229Y3474D02*
X240Y3474D01*
X356Y3474D02*
X367Y3474D01*
X419Y3474D02*
X430Y3474D01*
X488Y3474D02*
X499Y3474D01*
X616Y3474D02*
X627Y3474D01*
X679Y3474D02*
X690Y3474D01*
X748Y3474D02*
X759Y3474D01*
X875Y3474D02*
X886Y3474D01*
X938Y3474D02*
X950Y3474D01*
X1007Y3474D02*
X1018Y3474D01*
X96Y3473D02*
X108Y3473D01*
X160Y3473D02*
X171Y3473D01*
X229Y3473D02*
X240Y3473D01*
X356Y3473D02*
X367Y3473D01*
X419Y3473D02*
X430Y3473D01*
X488Y3473D02*
X499Y3473D01*
X615Y3473D02*
X627Y3473D01*
X679Y3473D02*
X690Y3473D01*
X748Y3473D02*
X759Y3473D01*
X875Y3473D02*
X886Y3473D01*
X938Y3473D02*
X950Y3473D01*
X1007Y3473D02*
X1018Y3473D01*
X95Y3472D02*
X108Y3472D01*
X160Y3472D02*
X171Y3472D01*
X229Y3472D02*
X240Y3472D01*
X355Y3472D02*
X367Y3472D01*
X419Y3472D02*
X430Y3472D01*
X488Y3472D02*
X499Y3472D01*
X614Y3472D02*
X627Y3472D01*
X679Y3472D02*
X690Y3472D01*
X748Y3472D02*
X759Y3472D01*
X874Y3472D02*
X886Y3472D01*
X938Y3472D02*
X950Y3472D01*
X1007Y3472D02*
X1018Y3472D01*
X94Y3471D02*
X107Y3471D01*
X160Y3471D02*
X171Y3471D01*
X229Y3471D02*
X240Y3471D01*
X354Y3471D02*
X367Y3471D01*
X419Y3471D02*
X430Y3471D01*
X488Y3471D02*
X499Y3471D01*
X613Y3471D02*
X626Y3471D01*
X679Y3471D02*
X690Y3471D01*
X748Y3471D02*
X759Y3471D01*
X873Y3471D02*
X886Y3471D01*
X938Y3471D02*
X950Y3471D01*
X1007Y3471D02*
X1018Y3471D01*
X93Y3470D02*
X107Y3470D01*
X160Y3470D02*
X171Y3470D01*
X229Y3470D02*
X240Y3470D01*
X255Y3470D02*
X290Y3470D01*
X352Y3470D02*
X367Y3470D01*
X419Y3470D02*
X430Y3470D01*
X488Y3470D02*
X499Y3470D01*
X612Y3470D02*
X626Y3470D01*
X679Y3470D02*
X690Y3470D01*
X748Y3470D02*
X759Y3470D01*
X871Y3470D02*
X886Y3470D01*
X938Y3470D02*
X950Y3470D01*
X1007Y3470D02*
X1018Y3470D01*
X92Y3469D02*
X107Y3469D01*
X160Y3469D02*
X171Y3469D01*
X229Y3469D02*
X240Y3469D01*
X254Y3469D02*
X291Y3469D01*
X351Y3469D02*
X366Y3469D01*
X419Y3469D02*
X430Y3469D01*
X488Y3469D02*
X499Y3469D01*
X611Y3469D02*
X626Y3469D01*
X679Y3469D02*
X690Y3469D01*
X748Y3469D02*
X759Y3469D01*
X870Y3469D02*
X885Y3469D01*
X938Y3469D02*
X950Y3469D01*
X1007Y3469D02*
X1018Y3469D01*
X91Y3468D02*
X106Y3468D01*
X160Y3468D02*
X171Y3468D01*
X229Y3468D02*
X240Y3468D01*
X254Y3468D02*
X291Y3468D01*
X350Y3468D02*
X366Y3468D01*
X419Y3468D02*
X430Y3468D01*
X488Y3468D02*
X499Y3468D01*
X610Y3468D02*
X625Y3468D01*
X679Y3468D02*
X690Y3468D01*
X748Y3468D02*
X759Y3468D01*
X869Y3468D02*
X885Y3468D01*
X938Y3468D02*
X950Y3468D01*
X1007Y3468D02*
X1018Y3468D01*
X89Y3467D02*
X106Y3467D01*
X160Y3467D02*
X171Y3467D01*
X229Y3467D02*
X240Y3467D01*
X254Y3467D02*
X292Y3467D01*
X349Y3467D02*
X365Y3467D01*
X419Y3467D02*
X430Y3467D01*
X488Y3467D02*
X499Y3467D01*
X608Y3467D02*
X625Y3467D01*
X679Y3467D02*
X690Y3467D01*
X748Y3467D02*
X759Y3467D01*
X868Y3467D02*
X884Y3467D01*
X938Y3467D02*
X950Y3467D01*
X1007Y3467D02*
X1018Y3467D01*
X88Y3466D02*
X105Y3466D01*
X160Y3466D02*
X171Y3466D01*
X229Y3466D02*
X240Y3466D01*
X254Y3466D02*
X291Y3466D01*
X348Y3466D02*
X364Y3466D01*
X419Y3466D02*
X430Y3466D01*
X488Y3466D02*
X499Y3466D01*
X607Y3466D02*
X624Y3466D01*
X679Y3466D02*
X690Y3466D01*
X748Y3466D02*
X759Y3466D01*
X867Y3466D02*
X883Y3466D01*
X938Y3466D02*
X950Y3466D01*
X1007Y3466D02*
X1018Y3466D01*
X87Y3465D02*
X104Y3465D01*
X160Y3465D02*
X171Y3465D01*
X229Y3465D02*
X240Y3465D01*
X255Y3465D02*
X291Y3465D01*
X347Y3465D02*
X364Y3465D01*
X419Y3465D02*
X430Y3465D01*
X488Y3465D02*
X499Y3465D01*
X606Y3465D02*
X623Y3465D01*
X679Y3465D02*
X690Y3465D01*
X748Y3465D02*
X759Y3465D01*
X866Y3465D02*
X883Y3465D01*
X938Y3465D02*
X950Y3465D01*
X1007Y3465D02*
X1018Y3465D01*
X86Y3464D02*
X103Y3464D01*
X160Y3464D02*
X171Y3464D01*
X229Y3464D02*
X240Y3464D01*
X257Y3464D02*
X289Y3464D01*
X345Y3464D02*
X363Y3464D01*
X419Y3464D02*
X430Y3464D01*
X488Y3464D02*
X499Y3464D01*
X605Y3464D02*
X622Y3464D01*
X679Y3464D02*
X690Y3464D01*
X748Y3464D02*
X759Y3464D01*
X864Y3464D02*
X882Y3464D01*
X938Y3464D02*
X950Y3464D01*
X1007Y3464D02*
X1018Y3464D01*
X85Y3463D02*
X102Y3463D01*
X160Y3463D02*
X171Y3463D01*
X229Y3463D02*
X240Y3463D01*
X260Y3463D02*
X269Y3463D01*
X344Y3463D02*
X362Y3463D01*
X419Y3463D02*
X430Y3463D01*
X488Y3463D02*
X499Y3463D01*
X604Y3463D02*
X621Y3463D01*
X679Y3463D02*
X690Y3463D01*
X748Y3463D02*
X759Y3463D01*
X863Y3463D02*
X881Y3463D01*
X938Y3463D02*
X950Y3463D01*
X1007Y3463D02*
X1018Y3463D01*
X83Y3462D02*
X101Y3462D01*
X160Y3462D02*
X171Y3462D01*
X229Y3462D02*
X240Y3462D01*
X260Y3462D02*
X268Y3462D01*
X342Y3462D02*
X361Y3462D01*
X419Y3462D02*
X431Y3462D01*
X488Y3462D02*
X499Y3462D01*
X602Y3462D02*
X620Y3462D01*
X679Y3462D02*
X690Y3462D01*
X748Y3462D02*
X759Y3462D01*
X861Y3462D02*
X880Y3462D01*
X938Y3462D02*
X950Y3462D01*
X1007Y3462D02*
X1018Y3462D01*
X53Y3461D02*
X100Y3461D01*
X146Y3461D02*
X185Y3461D01*
X229Y3461D02*
X240Y3461D01*
X259Y3461D02*
X267Y3461D01*
X313Y3461D02*
X359Y3461D01*
X405Y3461D02*
X445Y3461D01*
X488Y3461D02*
X499Y3461D01*
X572Y3461D02*
X619Y3461D01*
X665Y3461D02*
X704Y3461D01*
X748Y3461D02*
X759Y3461D01*
X832Y3461D02*
X878Y3461D01*
X924Y3461D02*
X964Y3461D01*
X1007Y3461D02*
X1018Y3461D01*
X52Y3460D02*
X99Y3460D01*
X144Y3460D02*
X187Y3460D01*
X229Y3460D02*
X240Y3460D01*
X258Y3460D02*
X266Y3460D01*
X311Y3460D02*
X358Y3460D01*
X404Y3460D02*
X446Y3460D01*
X488Y3460D02*
X499Y3460D01*
X571Y3460D02*
X618Y3460D01*
X663Y3460D02*
X706Y3460D01*
X748Y3460D02*
X759Y3460D01*
X830Y3460D02*
X877Y3460D01*
X923Y3460D02*
X965Y3460D01*
X1007Y3460D02*
X1018Y3460D01*
X51Y3459D02*
X98Y3459D01*
X143Y3459D02*
X188Y3459D01*
X229Y3459D02*
X240Y3459D01*
X257Y3459D02*
X265Y3459D01*
X310Y3459D02*
X357Y3459D01*
X403Y3459D02*
X447Y3459D01*
X488Y3459D02*
X499Y3459D01*
X570Y3459D02*
X617Y3459D01*
X662Y3459D02*
X707Y3459D01*
X748Y3459D02*
X759Y3459D01*
X829Y3459D02*
X876Y3459D01*
X922Y3459D02*
X966Y3459D01*
X1007Y3459D02*
X1018Y3459D01*
X50Y3458D02*
X96Y3458D01*
X143Y3458D02*
X188Y3458D01*
X229Y3458D02*
X240Y3458D01*
X256Y3458D02*
X264Y3458D01*
X310Y3458D02*
X356Y3458D01*
X402Y3458D02*
X448Y3458D01*
X488Y3458D02*
X499Y3458D01*
X569Y3458D02*
X616Y3458D01*
X662Y3458D02*
X707Y3458D01*
X748Y3458D02*
X759Y3458D01*
X829Y3458D02*
X875Y3458D01*
X921Y3458D02*
X967Y3458D01*
X1007Y3458D02*
X1018Y3458D01*
X50Y3457D02*
X95Y3457D01*
X142Y3457D02*
X189Y3457D01*
X229Y3457D02*
X240Y3457D01*
X255Y3457D02*
X264Y3457D01*
X309Y3457D02*
X355Y3457D01*
X402Y3457D02*
X448Y3457D01*
X488Y3457D02*
X499Y3457D01*
X569Y3457D02*
X614Y3457D01*
X661Y3457D02*
X708Y3457D01*
X748Y3457D02*
X759Y3457D01*
X828Y3457D02*
X874Y3457D01*
X921Y3457D02*
X967Y3457D01*
X1007Y3457D02*
X1018Y3457D01*
X50Y3456D02*
X94Y3456D01*
X142Y3456D02*
X189Y3456D01*
X229Y3456D02*
X240Y3456D01*
X255Y3456D02*
X263Y3456D01*
X309Y3456D02*
X354Y3456D01*
X402Y3456D02*
X448Y3456D01*
X488Y3456D02*
X499Y3456D01*
X569Y3456D02*
X613Y3456D01*
X661Y3456D02*
X708Y3456D01*
X748Y3456D02*
X759Y3456D01*
X828Y3456D02*
X873Y3456D01*
X921Y3456D02*
X967Y3456D01*
X1007Y3456D02*
X1018Y3456D01*
X50Y3455D02*
X93Y3455D01*
X142Y3455D02*
X189Y3455D01*
X229Y3455D02*
X240Y3455D01*
X254Y3455D02*
X262Y3455D01*
X309Y3455D02*
X353Y3455D01*
X402Y3455D02*
X448Y3455D01*
X488Y3455D02*
X499Y3455D01*
X569Y3455D02*
X612Y3455D01*
X661Y3455D02*
X708Y3455D01*
X748Y3455D02*
X759Y3455D01*
X828Y3455D02*
X872Y3455D01*
X921Y3455D02*
X967Y3455D01*
X1007Y3455D02*
X1018Y3455D01*
X50Y3454D02*
X92Y3454D01*
X142Y3454D02*
X189Y3454D01*
X229Y3454D02*
X240Y3454D01*
X254Y3454D02*
X261Y3454D01*
X309Y3454D02*
X351Y3454D01*
X402Y3454D02*
X448Y3454D01*
X488Y3454D02*
X499Y3454D01*
X569Y3454D02*
X611Y3454D01*
X661Y3454D02*
X708Y3454D01*
X748Y3454D02*
X759Y3454D01*
X828Y3454D02*
X870Y3454D01*
X921Y3454D02*
X967Y3454D01*
X1007Y3454D02*
X1018Y3454D01*
X50Y3453D02*
X91Y3453D01*
X143Y3453D02*
X188Y3453D01*
X229Y3453D02*
X240Y3453D01*
X254Y3453D02*
X260Y3453D01*
X310Y3453D02*
X350Y3453D01*
X402Y3453D02*
X448Y3453D01*
X488Y3453D02*
X499Y3453D01*
X569Y3453D02*
X610Y3453D01*
X662Y3453D02*
X707Y3453D01*
X748Y3453D02*
X759Y3453D01*
X829Y3453D02*
X869Y3453D01*
X921Y3453D02*
X967Y3453D01*
X1007Y3453D02*
X1018Y3453D01*
X51Y3452D02*
X89Y3452D01*
X143Y3452D02*
X187Y3452D01*
X229Y3452D02*
X240Y3452D01*
X254Y3452D02*
X260Y3452D01*
X310Y3452D02*
X349Y3452D01*
X403Y3452D02*
X447Y3452D01*
X488Y3452D02*
X499Y3452D01*
X570Y3452D02*
X608Y3452D01*
X662Y3452D02*
X706Y3452D01*
X748Y3452D02*
X759Y3452D01*
X829Y3452D02*
X868Y3452D01*
X922Y3452D02*
X966Y3452D01*
X1007Y3452D02*
X1018Y3452D01*
X52Y3451D02*
X87Y3451D01*
X144Y3451D02*
X187Y3451D01*
X229Y3451D02*
X240Y3451D01*
X254Y3451D02*
X260Y3451D01*
X311Y3451D02*
X347Y3451D01*
X404Y3451D02*
X446Y3451D01*
X488Y3451D02*
X499Y3451D01*
X571Y3451D02*
X606Y3451D01*
X663Y3451D02*
X706Y3451D01*
X748Y3451D02*
X759Y3451D01*
X830Y3451D02*
X866Y3451D01*
X923Y3451D02*
X965Y3451D01*
X1007Y3451D02*
X1018Y3451D01*
X53Y3450D02*
X84Y3450D01*
X146Y3450D02*
X185Y3450D01*
X229Y3450D02*
X240Y3450D01*
X254Y3450D02*
X260Y3450D01*
X313Y3450D02*
X344Y3450D01*
X405Y3450D02*
X444Y3450D01*
X488Y3450D02*
X499Y3450D01*
X573Y3450D02*
X603Y3450D01*
X665Y3450D02*
X704Y3450D01*
X748Y3450D02*
X759Y3450D01*
X832Y3450D02*
X863Y3450D01*
X924Y3450D02*
X963Y3450D01*
X1007Y3450D02*
X1018Y3450D01*
X229Y3449D02*
X240Y3449D01*
X254Y3449D02*
X260Y3449D01*
X488Y3449D02*
X499Y3449D01*
X748Y3449D02*
X759Y3449D01*
X1007Y3449D02*
X1018Y3449D01*
X229Y3448D02*
X240Y3448D01*
X254Y3448D02*
X260Y3448D01*
X488Y3448D02*
X499Y3448D01*
X748Y3448D02*
X759Y3448D01*
X1007Y3448D02*
X1018Y3448D01*
X229Y3447D02*
X240Y3447D01*
X254Y3447D02*
X260Y3447D01*
X488Y3447D02*
X499Y3447D01*
X748Y3447D02*
X759Y3447D01*
X1007Y3447D02*
X1018Y3447D01*
X229Y3446D02*
X240Y3446D01*
X254Y3446D02*
X260Y3446D01*
X268Y3446D02*
X271Y3446D01*
X488Y3446D02*
X499Y3446D01*
X528Y3446D02*
X531Y3446D01*
X748Y3446D02*
X759Y3446D01*
X787Y3446D02*
X790Y3446D01*
X1007Y3446D02*
X1018Y3446D01*
X1047Y3446D02*
X1050Y3446D01*
X229Y3445D02*
X240Y3445D01*
X254Y3445D02*
X260Y3445D01*
X267Y3445D02*
X273Y3445D01*
X488Y3445D02*
X499Y3445D01*
X526Y3445D02*
X533Y3445D01*
X748Y3445D02*
X759Y3445D01*
X786Y3445D02*
X792Y3445D01*
X1007Y3445D02*
X1018Y3445D01*
X1045Y3445D02*
X1052Y3445D01*
X229Y3444D02*
X240Y3444D01*
X254Y3444D02*
X261Y3444D01*
X266Y3444D02*
X274Y3444D01*
X488Y3444D02*
X499Y3444D01*
X525Y3444D02*
X533Y3444D01*
X748Y3444D02*
X759Y3444D01*
X785Y3444D02*
X793Y3444D01*
X1007Y3444D02*
X1018Y3444D01*
X1044Y3444D02*
X1052Y3444D01*
X229Y3443D02*
X240Y3443D01*
X254Y3443D02*
X275Y3443D01*
X488Y3443D02*
X499Y3443D01*
X525Y3443D02*
X534Y3443D01*
X748Y3443D02*
X759Y3443D01*
X784Y3443D02*
X794Y3443D01*
X1007Y3443D02*
X1018Y3443D01*
X1044Y3443D02*
X1053Y3443D01*
X229Y3442D02*
X240Y3442D01*
X255Y3442D02*
X275Y3442D01*
X488Y3442D02*
X499Y3442D01*
X524Y3442D02*
X535Y3442D01*
X748Y3442D02*
X759Y3442D01*
X784Y3442D02*
X794Y3442D01*
X1007Y3442D02*
X1018Y3442D01*
X1043Y3442D02*
X1054Y3442D01*
X229Y3441D02*
X240Y3441D01*
X255Y3441D02*
X275Y3441D01*
X488Y3441D02*
X499Y3441D01*
X524Y3441D02*
X535Y3441D01*
X748Y3441D02*
X759Y3441D01*
X783Y3441D02*
X794Y3441D01*
X1007Y3441D02*
X1018Y3441D01*
X1043Y3441D02*
X1054Y3441D01*
X229Y3440D02*
X240Y3440D01*
X256Y3440D02*
X275Y3440D01*
X488Y3440D02*
X500Y3440D01*
X523Y3440D02*
X535Y3440D01*
X748Y3440D02*
X759Y3440D01*
X783Y3440D02*
X794Y3440D01*
X1007Y3440D02*
X1019Y3440D01*
X1042Y3440D02*
X1054Y3440D01*
X229Y3439D02*
X241Y3439D01*
X257Y3439D02*
X275Y3439D01*
X488Y3439D02*
X500Y3439D01*
X523Y3439D02*
X535Y3439D01*
X748Y3439D02*
X760Y3439D01*
X782Y3439D02*
X794Y3439D01*
X1007Y3439D02*
X1019Y3439D01*
X1042Y3439D02*
X1054Y3439D01*
X229Y3438D02*
X241Y3438D01*
X258Y3438D02*
X275Y3438D01*
X489Y3438D02*
X501Y3438D01*
X522Y3438D02*
X535Y3438D01*
X748Y3438D02*
X760Y3438D01*
X782Y3438D02*
X794Y3438D01*
X1008Y3438D02*
X1020Y3438D01*
X1041Y3438D02*
X1054Y3438D01*
X229Y3437D02*
X243Y3437D01*
X261Y3437D02*
X275Y3437D01*
X489Y3437D02*
X502Y3437D01*
X521Y3437D02*
X534Y3437D01*
X748Y3437D02*
X762Y3437D01*
X780Y3437D02*
X794Y3437D01*
X1008Y3437D02*
X1021Y3437D01*
X1040Y3437D02*
X1053Y3437D01*
X230Y3436D02*
X274Y3436D01*
X489Y3436D02*
X534Y3436D01*
X749Y3436D02*
X793Y3436D01*
X1008Y3436D02*
X1053Y3436D01*
X230Y3435D02*
X274Y3435D01*
X490Y3435D02*
X534Y3435D01*
X749Y3435D02*
X793Y3435D01*
X1009Y3435D02*
X1053Y3435D01*
X231Y3434D02*
X274Y3434D01*
X490Y3434D02*
X533Y3434D01*
X750Y3434D02*
X793Y3434D01*
X1009Y3434D02*
X1052Y3434D01*
X231Y3433D02*
X273Y3433D01*
X491Y3433D02*
X533Y3433D01*
X750Y3433D02*
X792Y3433D01*
X1010Y3433D02*
X1052Y3433D01*
X232Y3432D02*
X272Y3432D01*
X491Y3432D02*
X532Y3432D01*
X751Y3432D02*
X791Y3432D01*
X1010Y3432D02*
X1051Y3432D01*
X233Y3431D02*
X272Y3431D01*
X492Y3431D02*
X531Y3431D01*
X752Y3431D02*
X791Y3431D01*
X1011Y3431D02*
X1050Y3431D01*
X233Y3430D02*
X271Y3430D01*
X493Y3430D02*
X530Y3430D01*
X752Y3430D02*
X790Y3430D01*
X1012Y3430D02*
X1049Y3430D01*
X234Y3429D02*
X270Y3429D01*
X494Y3429D02*
X529Y3429D01*
X753Y3429D02*
X789Y3429D01*
X1013Y3429D02*
X1048Y3429D01*
X236Y3428D02*
X268Y3428D01*
X495Y3428D02*
X528Y3428D01*
X755Y3428D02*
X787Y3428D01*
X1014Y3428D02*
X1047Y3428D01*
X237Y3427D02*
X267Y3427D01*
X496Y3427D02*
X526Y3427D01*
X756Y3427D02*
X786Y3427D01*
X1015Y3427D02*
X1045Y3427D01*
X239Y3426D02*
X265Y3426D01*
X498Y3426D02*
X524Y3426D01*
X758Y3426D02*
X784Y3426D01*
X1017Y3426D02*
X1043Y3426D01*
X241Y3425D02*
X262Y3425D01*
X501Y3425D02*
X522Y3425D01*
X760Y3425D02*
X781Y3425D01*
X1020Y3425D02*
X1041Y3425D01*
X276Y3361D02*
X285Y3361D01*
X275Y3360D02*
X286Y3360D01*
X275Y3359D02*
X286Y3359D01*
X275Y3358D02*
X286Y3358D01*
X275Y3357D02*
X286Y3357D01*
X275Y3356D02*
X286Y3356D01*
X275Y3355D02*
X286Y3355D01*
X275Y3354D02*
X286Y3354D01*
X275Y3353D02*
X286Y3353D01*
X275Y3352D02*
X286Y3352D01*
X275Y3351D02*
X286Y3351D01*
X275Y3350D02*
X286Y3350D01*
X276Y3349D02*
X286Y3349D01*
X277Y3348D02*
X284Y3348D01*
X262Y3272D02*
X283Y3272D01*
X260Y3271D02*
X285Y3271D01*
X259Y3270D02*
X286Y3270D01*
X258Y3269D02*
X287Y3269D01*
X257Y3268D02*
X288Y3268D01*
X256Y3267D02*
X289Y3267D01*
X256Y3266D02*
X290Y3266D01*
X255Y3265D02*
X263Y3265D01*
X282Y3265D02*
X290Y3265D01*
X255Y3264D02*
X262Y3264D01*
X283Y3264D02*
X291Y3264D01*
X254Y3263D02*
X261Y3263D01*
X284Y3263D02*
X291Y3263D01*
X254Y3262D02*
X260Y3262D01*
X285Y3262D02*
X291Y3262D01*
X254Y3261D02*
X260Y3261D01*
X285Y3261D02*
X292Y3261D01*
X254Y3260D02*
X260Y3260D01*
X286Y3260D02*
X292Y3260D01*
X254Y3259D02*
X260Y3259D01*
X286Y3259D02*
X292Y3259D01*
X254Y3258D02*
X260Y3258D01*
X286Y3258D02*
X292Y3258D01*
X254Y3257D02*
X260Y3257D01*
X286Y3257D02*
X292Y3257D01*
X254Y3256D02*
X260Y3256D01*
X286Y3256D02*
X292Y3256D01*
X254Y3255D02*
X260Y3255D01*
X286Y3255D02*
X292Y3255D01*
X254Y3254D02*
X260Y3254D01*
X286Y3254D02*
X292Y3254D01*
X254Y3253D02*
X260Y3253D01*
X285Y3253D02*
X291Y3253D01*
X254Y3252D02*
X261Y3252D01*
X284Y3252D02*
X291Y3252D01*
X255Y3251D02*
X262Y3251D01*
X283Y3251D02*
X291Y3251D01*
X255Y3250D02*
X263Y3250D01*
X283Y3250D02*
X290Y3250D01*
X256Y3249D02*
X264Y3249D01*
X282Y3249D02*
X290Y3249D01*
X257Y3248D02*
X265Y3248D01*
X281Y3248D02*
X289Y3248D01*
X257Y3247D02*
X260Y3247D01*
X280Y3247D02*
X288Y3247D01*
X241Y3245D02*
X243Y3245D01*
D02*
G04 End of Silk0*
M02*