; NON-PLATED HOLES START AT T1
; THROUGH (PLATED) HOLES START AT T100
M48
INCH
T100C0.041333
T101C0.040000
T102C0.035000
T103C0.045000
T104C0.088356
T105C0.043307
T106C0.038000
T107C0.041361
T108C0.030000
T109C0.035433
%
T100
X008018Y011567
X001790Y011504
X002790Y011504
X009068Y023845
X001734Y023843
X002734Y023843
X008068Y023845
X009018Y011567
T101
X002457Y041034
X006457Y041034
X003457Y041034
X002457Y042034
X003457Y042034
X006457Y042034
X005457Y042034
X009457Y042034
X009457Y041034
X005457Y041034
X008457Y042034
X008457Y041034
X004457Y041034
X007457Y041034
X007457Y042034
X004457Y042034
T102
X011282Y007523
X011282Y010523
X006476Y038902
X011190Y040003
X002096Y018931
X003136Y018173
X003136Y021173
X005821Y002980
X006136Y021173
X006136Y018173
X005136Y021173
X007136Y018173
X005136Y018173
X009219Y017180
X007136Y021173
X006219Y017180
X002096Y021931
X011379Y031259
X005476Y038902
X005821Y003980
X009136Y021173
X009136Y018173
X008136Y021173
X008379Y031259
X008136Y018173
X004136Y018173
X010190Y040003
X004136Y021173
T103
X000644Y005309
X000644Y033576
X005133Y037122
X005133Y001765
X005133Y005308
X003892Y033576
X006686Y001735
X007936Y037124
X011174Y005278
X006686Y005278
X000644Y001765
X000644Y037122
X003892Y001765
X007936Y033578
X011174Y001735
X006695Y037124
X003892Y005308
X011184Y037124
X005133Y033576
X003892Y037122
X006695Y033578
X007926Y001735
X007926Y005279
X011184Y033578
T104
X000848Y014456
X000793Y026795
X010959Y014520
X004676Y026795
X004731Y014456
X007076Y014520
X007126Y026798
X011009Y026798
T105
X000685Y020190
T106
X001444Y029296
X010495Y009201
X010444Y030272
X001495Y009402
X010444Y029272
X001444Y030473
X010495Y008201
X001495Y008225
T107
X010068Y023845
X003734Y023843
X010018Y011567
X003790Y011504
T108
X004971Y022099
X006386Y023513
X005501Y034507
X006916Y035921
X006448Y029648
X005034Y031062
X010426Y020859
X010426Y018859
T109
X001129Y022720
X000766Y039305
X005902Y015233
X005911Y010233
X001181Y021474
X005902Y012233
X009326Y028782
X000663Y007441
X011271Y022647
X008271Y022647
X003760Y016694
X000663Y010441
X001181Y018474
X004129Y022720
X009326Y025782
X005911Y007233
X000760Y016694
X003766Y039305
T00
M30
